<svg width="192" height="192" viewBox="0 0 192 192" fill="none" xmlns="http://www.w3.org/2000/svg">
<g clip-path="url(#clip0_559_647)">
<g clip-path="url(#clip1_559_647)">
<mask id="mask0_559_647" style="mask-type:luminance" maskUnits="userSpaceOnUse" x="0" y="0" width="192" height="192">
<path d="M191.413 0H0V192H191.413V0Z" fill="white"/>
</mask>
<g mask="url(#mask0_559_647)">
<path d="M98.3221 0H0V192H98.3221C149.653 192 191.413 148.935 191.413 96C191.413 43.0649 149.653 0 98.3221 0ZM168.184 96C168.184 135.725 136.843 168.045 98.3221 168.045H23.2293V23.9553H98.3221C136.843 23.9553 168.184 56.2753 168.184 96Z" fill="#17212C"/>
<path d="M65.2102 124.764H41.981V148.719H65.2102V124.764Z" fill="#17212C"/>
<path d="M97.4902 43.2723H41.981V132.097L65.2102 125.431V67.2273H97.4902C112.86 67.2273 125.362 80.1413 125.362 96.0159C125.362 111.867 112.86 124.764 97.4902 124.764H64.5205V148.719H97.4902C125.666 148.719 148.592 125.077 148.592 96.0159C148.592 66.9346 125.666 43.2723 97.4902 43.2723Z" fill="#17212C"/>
</g>
</g>
</g>
<defs>
<clipPath id="clip0_559_647">
<rect width="192" height="192" fill="white"/>
</clipPath>
<clipPath id="clip1_559_647">
<rect width="192" height="192" fill="white"/>
</clipPath>
</defs>
</svg>
