<svg width="150" height="150" viewBox="0 0 150 150" fill="none" xmlns="http://www.w3.org/2000/svg">
<g clip-path="url(#clip0_560_2)">
<mask id="mask0_560_2" style="mask-type:luminance" maskUnits="userSpaceOnUse" x="0" y="1" width="150" height="149">
<path d="M149.541 1H0V150H149.541V1Z" fill="white"/>
</mask>
<g mask="url(#mask0_560_2)">
<path d="M76.8141 1H0V150H76.8141C116.917 150 149.541 116.58 149.541 75.5C149.541 34.4202 116.917 1 76.8141 1ZM131.393 75.5C131.393 106.328 106.909 131.41 76.8141 131.41H18.1479V19.5903H76.8141C106.909 19.5903 131.393 44.672 131.393 75.5Z" fill="#17212C"/>
<path d="M50.9455 97.8221H32.7976V116.412H50.9455V97.8221Z" fill="#17212C"/>
<path d="M76.1641 34.5812H32.7976V103.513L50.9455 98.3394V53.1712H76.1641C88.1722 53.1712 97.9394 63.193 97.9394 75.5124C97.9394 87.8137 88.1722 97.822 76.1641 97.822H50.4066V116.412H76.1641C98.1768 116.412 116.087 98.0652 116.087 75.5124C116.087 52.9441 98.1768 34.5812 76.1641 34.5812Z" fill="#17212C"/>
</g>
</g>
<defs>
<clipPath id="clip0_560_2">
<rect width="150" height="149" fill="white" transform="translate(0 1)"/>
</clipPath>
</defs>
</svg>
