<svg width="150" height="150" viewBox="0 0 150 150" fill="none" xmlns="http://www.w3.org/2000/svg">
<circle cx="75" cy="75" r="74" fill="#1F1E24"/>
<path d="M63.056 102.96C59.088 102.96 55.536 101.968 52.4 99.984C49.328 98 46.896 95.152 45.104 91.44C43.376 87.728 42.512 83.28 42.512 78.096C42.512 72.784 43.44 68.272 45.296 64.56C47.152 60.784 49.648 57.936 52.784 56.016C55.984 54.032 59.568 53.04 63.536 53.04C67.76 53.04 71.248 54.256 74 56.688C76.752 59.12 78.544 62.256 79.376 66.096L78.128 67.632V32.976H91.28V102H79.472L78.608 87.408L80.24 88.176C79.792 91.184 78.768 93.808 77.168 96.048C75.568 98.224 73.552 99.92 71.12 101.136C68.688 102.352 66 102.96 63.056 102.96ZM66.896 92.88C69.2 92.88 71.184 92.304 72.848 91.152C74.512 89.936 75.792 88.176 76.688 85.872C77.648 83.568 78.128 80.816 78.128 77.616C78.128 74.544 77.68 71.952 76.784 69.84C75.888 67.664 74.608 66 72.944 64.848C71.28 63.696 69.328 63.12 67.088 63.12C63.504 63.12 60.688 64.4 58.64 66.96C56.656 69.456 55.664 73.136 55.664 78C55.664 82.864 56.656 86.576 58.64 89.136C60.624 91.632 63.376 92.88 66.896 92.88Z" fill="#D7C886"/>
<path d="M31.536 87.312C34.096 87.312 36.112 88.016 37.584 89.424C39.12 90.832 39.888 92.72 39.888 95.088C39.888 97.52 39.12 99.44 37.584 100.848C36.112 102.192 34.096 102.864 31.536 102.864C28.976 102.864 26.928 102.192 25.392 100.848C23.92 99.44 23.184 97.52 23.184 95.088C23.184 92.72 23.92 90.832 25.392 89.424C26.928 88.016 28.976 87.312 31.536 87.312Z" fill="#D7C886"/>
<path d="M116.92 105.4C114.307 105.4 112.147 105.027 110.44 104.28C108.787 103.533 107.56 102.44 106.76 101C105.96 99.6133 105.56 97.9333 105.56 95.96V78.04C105.56 75.32 104.813 73.32 103.32 72.04C101.827 70.76 99.56 70.12 96.52 70.12V66.6C99.56 66.6 101.827 65.96 103.32 64.68C104.813 63.3467 105.56 61.3467 105.56 58.68V40.84C105.56 38.8133 105.96 37.1067 106.76 35.72C107.56 34.28 108.787 33.1867 110.44 32.44C112.147 31.6933 114.307 31.32 116.92 31.32V34.6C114.307 34.6 112.387 35.1067 111.16 36.12C109.933 37.1333 109.32 38.6 109.32 40.52V59C109.32 61.4533 108.653 63.48 107.32 65.08C105.987 66.68 104.067 67.7733 101.56 68.36C104.067 68.9467 105.987 70.04 107.32 71.64C108.653 73.24 109.32 75.2667 109.32 77.72V96.2C109.32 98.12 109.933 99.5867 111.16 100.6C112.387 101.613 114.307 102.12 116.92 102.12V105.4Z" fill="white"/>
</svg>
