<svg width="192" height="192" viewBox="0 0 192 192" fill="none" xmlns="http://www.w3.org/2000/svg">
<circle cx="96" cy="96" r="95" fill="#1F1E24"/>
<path d="M80.725 142.336C75.2009 142.336 70.256 140.955 65.8902 138.193C61.6135 135.431 58.2278 131.467 55.733 126.299C53.3274 121.131 52.1246 114.939 52.1246 107.722C52.1246 100.327 53.4165 94.0453 56.0003 88.8776C58.5842 83.6209 62.059 79.656 66.4248 76.9831C70.8797 74.221 75.8692 72.84 81.3933 72.84C87.2737 72.84 92.1296 74.5329 95.9608 77.9186C99.792 81.3043 102.287 85.6701 103.445 91.016L101.708 93.1543V44.9078H120.017V141H103.579L102.376 120.686L104.648 121.755C104.024 125.942 102.599 129.595 100.371 132.714C98.1437 135.743 95.3371 138.104 91.9514 139.797C88.5657 141.49 84.8235 142.336 80.725 142.336ZM86.0709 128.304C89.2784 128.304 92.0405 127.502 94.357 125.898C96.6736 124.205 98.4555 121.755 99.7029 118.547C101.039 115.34 101.708 111.509 101.708 107.054C101.708 102.777 101.084 99.1685 99.8366 96.2282C98.5892 93.1989 96.8072 90.8823 94.4907 89.2786C92.1741 87.6748 89.4566 86.8729 86.3382 86.8729C81.3487 86.8729 77.4284 88.6549 74.5773 92.2188C71.8152 95.6936 70.4342 100.817 70.4342 107.588C70.4342 114.36 71.8152 119.527 74.5773 123.091C77.3393 126.566 81.1705 128.304 86.0709 128.304Z" fill="#D7C886"/>
<path d="M36.8442 121.003C40.4082 121.003 43.2147 121.983 45.264 123.943C47.4024 125.903 48.4715 128.532 48.4715 131.828C48.4715 135.214 47.4024 137.887 45.264 139.847C43.2147 141.718 40.4082 142.654 36.8442 142.654C33.2803 142.654 30.4292 141.718 28.2908 139.847C26.2416 137.887 25.2169 135.214 25.2169 131.828C25.2169 128.532 26.2416 125.903 28.2908 123.943C30.4292 121.983 33.2803 121.003 36.8442 121.003Z" fill="#D7C886"/>
<path d="M155.712 145.047C152.074 145.047 149.067 144.527 146.691 143.488C144.389 142.448 142.682 140.926 141.568 138.922C140.454 136.991 139.897 134.652 139.897 131.905V106.958C139.897 103.171 138.858 100.387 136.779 98.6047C134.7 96.8227 131.544 95.9318 127.312 95.9318V91.0314C131.544 91.0314 134.7 90.1404 136.779 88.3584C138.858 86.5022 139.897 83.7179 139.897 80.0055V55.1694C139.897 52.348 140.454 49.972 141.568 48.0416C142.682 46.0369 144.389 44.5148 146.691 43.4753C149.067 42.4358 152.074 41.9161 155.712 41.9161V46.4824C152.074 46.4824 149.401 47.1877 147.693 48.5984C145.986 50.0091 145.132 52.051 145.132 54.7239V80.451C145.132 83.8664 144.204 86.6878 142.347 88.9153C140.491 91.1427 137.818 92.6648 134.329 93.4816C137.818 94.2983 140.491 95.8204 142.347 98.0478C144.204 100.275 145.132 103.097 145.132 106.512V132.239C145.132 134.912 145.986 136.954 147.693 138.365C149.401 139.775 152.074 140.481 155.712 140.481V145.047Z" fill="white"/>
</svg>
