<svg width="297" height="288" viewBox="0 0 297 288" fill="none" xmlns="http://www.w3.org/2000/svg">
<g clip-path="url(#clip0_554_615)">
<path d="M152.092 0H0V288H152.092C231.495 288 296.092 223.403 296.092 144C296.092 64.5974 231.495 0 152.092 0ZM260.159 144C260.159 203.587 211.679 252.067 152.092 252.067H35.9329V35.9329H152.092C211.679 35.9329 260.159 84.413 260.159 144Z" fill="#17212C"/>
<path d="M100.872 187.146H64.9392V223.079H100.872V187.146Z" fill="#17212C"/>
<path d="M150.805 64.9086H64.9392V198.146L100.872 188.146V100.841H150.805C174.581 100.841 193.92 120.212 193.92 144.024C193.92 167.801 174.581 187.146 150.805 187.146H99.8051V223.079H150.805C194.39 223.079 229.853 187.616 229.853 144.024C229.853 100.402 194.39 64.9086 150.805 64.9086Z" fill="#17212C"/>
</g>
<defs>
<clipPath id="clip0_554_615">
<rect width="296.092" height="288" fill="white"/>
</clipPath>
</defs>
</svg>
